<svg width="334" height="334" viewBox="0 0 334 334" fill="none" xmlns="http://www.w3.org/2000/svg">
<rect width="334" height="334" fill="#C4C4C4"/>
<path d="M195 148.148V149H176.667V131H177.534C178.446 131 179.32 131.356 179.965 131.988L193.993 145.761C194.638 146.394 195 147.253 195 148.148V148.148ZM175.521 153.5C173.63 153.5 172.083 151.981 172.083 150.125V131H143.438C141.539 131 140 132.511 140 134.375V199.625C140 201.489 141.539 203 143.438 203H191.563C193.461 203 195 201.489 195 199.625V153.5H175.521ZM156.12 155.75C159.917 155.75 162.995 158.772 162.995 162.5C162.995 166.228 159.917 169.25 156.12 169.25C152.323 169.25 149.245 166.228 149.245 162.5C149.245 158.772 152.323 155.75 156.12 155.75ZM185.911 189.5H149.245L149.314 182.682L154.974 177.125C155.645 176.466 156.664 176.534 157.335 177.193L162.995 182.75L177.821 168.193C178.492 167.534 179.581 167.534 180.252 168.193L185.911 173.75V189.5V189.5Z" fill="#EEEEEE"/>
</svg>
