<?xml version="1.0" encoding="utf-8"?>
<!-- Generator: Adobe Illustrator 23.0.2, SVG Export Plug-In . SVG Version: 6.00 Build 0)  -->
<svg version="1.1" xmlns="http://www.w3.org/2000/svg" xmlns:xlink="http://www.w3.org/1999/xlink" x="0px" y="0px"
	 viewBox="0 0 74.29 68.38" style="enable-background:new 0 0 74.29 68.38;" xml:space="preserve">
<style type="text/css">
	.st0{fill:#FFFFFF;}
	.st1{fill:#EBCE0E;}
	.st2{fill:#E09F00;}
	.st3{fill:#3F3F5B;}
	.st4{fill:url(#SVGID_1_);}
	.st5{fill:url(#SVGID_2_);}
	.st6{fill:#FF2936;}
	.st7{fill:url(#SVGID_3_);}
	.st8{fill:url(#SVGID_4_);}
	.st9{fill:#7EB8FF;}
	.st10{fill:#3590FF;}
	.st11{fill:#C7E0FF;}
	.st12{fill:#BF101F;}
	.st13{fill:#1F1F40;}
	.st14{fill:#F1DD58;}
	.st15{opacity:0.5;}
	.st16{fill:#606060;}
</style>
<g id="BACKGROUND">
</g>
<g id="OBJECTS">
	<g>
		<path class="st1" d="M63.32,14.75C54.72,5.73,41.32,2.18,29.01,4.02C18.02,5.65,4.53,10.84,2.76,30.72
			C0.99,50.59,15.6,63.47,36.03,65.71c20.43,2.24,29-10.25,32.39-16.49C71.8,42.97,71.91,23.77,63.32,14.75z"/>
		<g>
			<path class="st2" d="M69.44,27.3c0.01,0.53,0.01,1.06,0.01,1.59c-0.04,3.89-0.44,7.81-1.7,11.49
				c-2.13,6.22-6.69,11.48-12.29,14.94c-5.59,3.46-12.16,5.18-18.73,5.48c-8.7,0.39-17.62-1.75-24.8-6.69
				c-1.63-1.12-3.15-2.4-4.56-3.79c5.7,8.6,16.06,14.01,28.64,15.4c20.43,2.24,29-10.25,32.38-16.49
				C70.59,45.21,71.41,35.86,69.44,27.3z"/>
		</g>
		<g>
			<path class="st3" d="M21.55,32.53c0.37,0.04,0.66,1.21,0.17,3.07c-0.27,0.91-0.75,2.06-1.89,3.05c-0.55,0.5-1.32,0.87-2.15,1.07
				c-0.83,0.15-1.69,0.14-2.48-0.06c-1.61-0.36-2.96-1.38-3.77-2.45c-0.82-1.08-1.23-2.18-1.44-3.1c-0.41-1.85-0.13-3.02,0.25-3.05
				c0.4-0.05,0.84,0.94,1.63,2.33c0.79,1.38,2.05,3.08,3.97,3.49c0.98,0.23,1.73,0.13,2.38-0.31c0.66-0.42,1.22-1.12,1.64-1.77
				C20.7,33.48,21.15,32.47,21.55,32.53z"/>
		</g>
		<g>
			<path class="st3" d="M50.93,32.54c0.4-0.06,0.85,0.94,1.68,2.27c0.42,0.65,0.97,1.35,1.64,1.77c0.65,0.44,1.4,0.54,2.38,0.31
				c1.92-0.4,3.18-2.11,3.97-3.49c0.79-1.39,1.23-2.38,1.63-2.33c0.38,0.04,0.66,1.21,0.25,3.05c-0.22,0.92-0.62,2.02-1.44,3.1
				c-0.8,1.07-2.15,2.09-3.77,2.45c-0.8,0.2-1.65,0.21-2.48,0.06c-0.82-0.2-1.59-0.57-2.15-1.07c-1.14-0.99-1.62-2.14-1.89-3.05
				C50.26,33.75,50.55,32.58,50.93,32.54z"/>
		</g>
		<g>
			<g>
				<path class="st13" d="M29.44,22.31c2.93-6.4,5.29-11.4,7.49-14.85c-2.52,0.37-4.78,0.78-6.87,1.43l-1.3-4.95
					c2.75-0.75,5.67-1.2,8.61-1.39c1.42-0.1,2.89-0.14,4.26-0.14l1.13,4.6c-3.03,4.89-5.77,10.21-7.86,14.68l2.43-0.16
					c2.33-0.16,4.67-0.16,6.51-0.08l-0.34,4.7c-1.58-0.05-3.62-0.06-5.85,0.09c-1.37,0.09-3.58,0.45-6.94,1.23L29.44,22.31z"/>
			</g>
			<g>
				<path class="st13" d="M45.26,18.5c3.17-4.56,5.71-8.11,7.91-10.49c-2.01-0.06-3.82-0.07-5.54,0.15l-0.32-4.03
					C49.56,3.94,51.89,4,54.2,4.26c1.12,0.12,2.27,0.29,3.33,0.49l0.23,3.74c-3.04,3.37-5.92,7.12-8.17,10.3L51.5,19
					c1.83,0.21,3.65,0.53,5.07,0.85l-0.93,3.61c-1.22-0.26-2.8-0.56-4.55-0.75c-1.08-0.12-2.85-0.16-5.56-0.02L45.26,18.5z"/>
			</g>
			<g>
				<path class="st13" d="M59.08,16.55c3.47-2.94,6.22-5.21,8.46-6.62c-1.57-0.47-3.01-0.86-4.41-1.05l0.6-3.25
					c1.81,0.32,3.64,0.86,5.41,1.55c0.86,0.33,1.73,0.71,2.53,1.09l-0.61,3c-3.11,2.02-6.18,4.38-8.62,6.42l1.47,0.57
					c1.4,0.55,2.77,1.19,3.83,1.74l-1.49,2.65c-0.91-0.46-2.1-1.03-3.44-1.55c-0.82-0.32-2.22-0.72-4.39-1.18L59.08,16.55z"/>
			</g>
		</g>
		<g>
			<path class="st3" d="M40.79,41.53c0.15,0.77-1.35,1.71-3.38,1.81c-2.03,0.11-3.62-0.67-3.55-1.45c0.07-0.79,1.59-1.3,3.4-1.4
				C39.07,40.4,40.64,40.75,40.79,41.53z"/>
		</g>
	</g>
</g>
<g id="DESIGNED_BY_FREEPIK">
</g>
</svg>
