<svg id="logo_fundo_azul" xmlns="http://www.w3.org/2000/svg" width="270.745" height="158.7" viewBox="0 0 270.745 158.7">
  <rect id="Retângulo_1" data-name="Retângulo 1" width="270.745" height="158.7" fill="#002357"/>
  <g id="Grupo_1" data-name="Grupo 1" transform="translate(15.109 63.093)">
    <path id="Caminho_1" data-name="Caminho 1" d="M12.621,52.7H29.3c10.516,0,15.713,5.923,15.713,16.559L44.893,103.1c0,10.757-5.2,16.559-15.713,16.559H12.5Zm10.516,9.669-.121,47.864h5.923c3.384,0,5.318-1.692,5.318-6.527l.121-34.81c0-4.835-2.055-6.527-5.318-6.527Z" transform="translate(-12.5 -52.096)" fill="#fff"/>
    <path id="Caminho_2" data-name="Caminho 2" d="M44.921,52.8H55.436l-.121,66.961H44.8Z" transform="translate(-5.76 -52.075)" fill="#fff"/>
    <path id="Caminho_3" data-name="Caminho 3" d="M90.526,94.987v8.944c0,10.757-5.439,16.8-15.713,16.8S59.1,114.568,59.1,103.811L59.221,69c0-10.757,5.439-16.8,15.713-16.8s15.713,6.164,15.713,16.922v6.527H80.735V68.517c0-4.835-2.055-6.648-5.439-6.648s-5.439,1.813-5.439,6.648l-.121,36.14c0,4.835,2.055,6.527,5.439,6.527s5.439-1.692,5.439-6.527V95.108Z" transform="translate(-2.775 -52.2)" fill="#fff"/>
    <path id="Caminho_4" data-name="Caminho 4" d="M124.865,119.882H114.228l-1.813-12.208H99.482l-1.813,12.087H88L98.878,52.8h15.35ZM100.933,98.609h10.153L106.13,64.766h-.242Z" transform="translate(3.256 -52.075)" fill="#fff"/>
    <path id="Caminho_5" data-name="Caminho 5" d="M137.155,52.3c10.274,0,15.471,6.164,15.471,16.922v2.055h-9.911V68.5c0-4.835-1.934-6.648-5.2-6.648-3.384,0-5.318,1.813-5.318,6.648s2.055,8.461,8.944,14.5c8.823,7.736,11.6,13.3,11.482,21.031,0,10.757-5.439,16.8-15.713,16.8S121.2,114.668,121.2,103.911V99.8h9.911v4.835c0,4.835,2.055,6.527,5.439,6.527s5.439-1.692,5.439-6.527-2.055-8.461-8.944-14.5c-8.823-7.736-11.6-13.3-11.482-21.031C121.683,58.464,126.881,52.3,137.155,52.3Z" transform="translate(10.184 -52.179)" fill="#fff"/>
    <path id="Caminho_6" data-name="Caminho 6" d="M186.765,119.982H176.128l-1.813-12.208H161.382l-1.813,12.087H149.9L160.778,52.9h15.35ZM162.712,98.709h10.153l-4.956-33.843h-.242Z" transform="translate(16.173 -52.054)" fill="#fff"/>
  </g>
  <text id="Para_sua_casa_com_o_menor_preço_" data-name="Para sua casa, com o menor preço!" transform="translate(13.789 147.457)" fill="#e2c30a" font-size="10" font-family="Lemon-Regular, Lemon"><tspan x="0" y="0">Para sua casa, com o menor preço!</tspan></text>
  <path id="Caminho_7" data-name="Caminho 7" d="M235.914,77.419c-7.856-7.856-31.184-31.547-31.184-31.547V19.4c0-3.143-2.055-5.076-4.593-5.076H179.469a4.012,4.012,0,0,0-4.11,2.538l-8.944-8.823a6.368,6.368,0,0,0-8.7-.483L107.794,47.081s-3.747,3.384-.121,8.1c2.78,3.626,7.615.846,7.615.846l43.875-34.81c2.659-2.055,3.022-2.417,5.318-.121l9.911,10.395s5.076,5.439,9.065,2.9C186.116,32.577,186,26.9,186,26.9h0a.808.808,0,0,1,.725-.846h6.164a.808.808,0,0,1,.725.846V49.62l11.241,11.362V60.86l12.933,13.054H205.455a3.508,3.508,0,0,0-3.505,3.505v52.457h10.395V84.309H233.98C237.606,83.825,238.211,79.595,235.914,77.419Z" transform="translate(22.14 1.266)" fill="#e2c30a"/>
</svg>
