<svg xmlns="http://www.w3.org/2000/svg" width="115.897" height="68.4" viewBox="0 0 115.897 68.4">
  <g id="logo_fundo_branco" transform="translate(-11.409 -6.066)">
    <g id="Grupo_86" data-name="Grupo 86" transform="translate(12.031 32.377)">
      <path id="Caminho_36" data-name="Caminho 36" d="M12.557,52.7h7.87c4.962,0,7.414,2.795,7.414,7.813l-.057,15.969c0,5.076-2.452,7.813-7.414,7.813H12.5Zm4.962,4.563-.057,22.585h2.795c1.6,0,2.509-.8,2.509-3.08l.057-16.425c0-2.281-.97-3.08-2.509-3.08Z" transform="translate(-12.5 -52.415)" fill="#fcfcfc"/>
      <path id="Caminho_37" data-name="Caminho 37" d="M44.857,52.8h4.962l-.057,31.6H44.8Z" transform="translate(-26.379 -52.458)" fill="#fcfcfc"/>
      <path id="Caminho_38" data-name="Caminho 38" d="M73.928,72.389v4.22c0,5.076-2.566,7.927-7.414,7.927S59.1,81.629,59.1,76.553l.057-16.425c0-5.076,2.566-7.927,7.414-7.927s7.414,2.909,7.414,7.985v3.08H69.309V59.9c0-2.281-.97-3.137-2.566-3.137s-2.566.855-2.566,3.137l-.057,17.053c0,2.281.97,3.08,2.566,3.08s2.566-.8,2.566-3.08V72.446Z" transform="translate(-32.523 -52.2)" fill="#fcfcfc"/>
      <path id="Caminho_39" data-name="Caminho 39" d="M105.395,84.453h-5.019l-.855-5.76h-6.1l-.855,5.7H88l5.133-31.6h7.243ZM94.1,74.415h4.791L96.555,58.446h-.114Z" transform="translate(-44.941 -52.458)" fill="#fcfcfc"/>
      <path id="Caminho_40" data-name="Caminho 40" d="M128.728,52.3c4.848,0,7.3,2.909,7.3,7.985v.97h-4.677V59.942c0-2.281-.913-3.137-2.452-3.137-1.6,0-2.509.855-2.509,3.137s.97,3.992,4.22,6.844c4.163,3.65,5.475,6.274,5.418,9.924,0,5.076-2.566,7.927-7.414,7.927s-7.414-2.909-7.414-7.985V74.714h4.677v2.281c0,2.281.97,3.08,2.566,3.08s2.566-.8,2.566-3.08-.97-3.992-4.22-6.844c-4.163-3.65-5.475-6.274-5.418-9.924C121.428,55.209,123.881,52.3,128.728,52.3Z" transform="translate(-59.206 -52.243)" fill="#fcfcfc"/>
      <path id="Caminho_41" data-name="Caminho 41" d="M167.295,84.553h-5.019l-.855-5.76h-6.1l-.855,5.7H149.9l5.133-31.6h7.243ZM155.945,74.515h4.791L158.4,58.546h-.114Z" transform="translate(-71.538 -52.501)" fill="#fcfcfc"/>
    </g>
    <text id="Para_sua_casa_com_o_menor_preço_" data-name="Para sua casa, com o menor preço!" transform="translate(11.409 72.466)" fill="#e2c30a" font-size="5" font-family="Lemon-Regular, Lemon"><tspan x="0" y="0">Para sua casa, com o menor preço!</tspan></text>
    <path id="Caminho_42" data-name="Caminho 42" d="M167.349,39.735c-3.707-3.707-14.714-14.885-14.714-14.885V12.359a2.194,2.194,0,0,0-2.167-2.4h-9.753a1.893,1.893,0,0,0-1.939,1.2L134.556,7a3,3,0,0,0-4.106-.228L106.9,25.419a2.726,2.726,0,0,0-.057,3.821c1.312,1.711,3.593.4,3.593.4l20.7-16.425c1.255-.97,1.426-1.141,2.509-.057l4.677,4.9s2.4,2.566,4.277,1.369c1.255-.855,1.2-3.536,1.2-3.536h0a.381.381,0,0,1,.342-.4h2.909a.381.381,0,0,1,.342.4V26.617l5.3,5.361v-.057l6.1,6.159h-5.817a1.655,1.655,0,0,0-1.654,1.654V64.487h4.9v-21.5h10.209A1.852,1.852,0,0,0,167.349,39.735Z" transform="translate(-40.683)" fill="#e2c30a"/>
  </g>
</svg>
