<svg id="Grupo_106" data-name="Grupo 106" xmlns="http://www.w3.org/2000/svg" xmlns:xlink="http://www.w3.org/1999/xlink" width="33.2" height="51.902" viewBox="0 0 33.2 51.902">
  <defs>
    <linearGradient id="linear-gradient" x1="0.5" y1="-0.069" x2="0.5" y2="0.915" gradientUnits="objectBoundingBox">
      <stop offset="0" stop-color="#77aa3a"/>
      <stop offset="1" stop-color="#d7d026"/>
    </linearGradient>
  </defs>
  <path id="Caminho_21" data-name="Caminho 21" d="M33.2,0s-1.3,9-8.3,13.7c-3.1,2.1-7.2,3.3-13,2.8C11.9,16.5,8.5-.2,33.2,0Z" transform="translate(0 0.002)" fill="#7fa851"/>
  <path id="Caminho_22" data-name="Caminho 22" d="M.6,5.3s5,.6,7.9,4.4c1.3,1.8,1.9,3.8,1.8,7C10.3,16.7,1.3,18.5.6,5.3Z" transform="translate(0 0.002)" fill="#7fa851"/>
  <path id="Caminho_23" data-name="Caminho 23" d="M28.4,35.7c0,10.7-4.8,16.2-14.2,16.2S0,46.5,0,35.7C0,24.8,4.7,19.5,14.2,19.5S28.4,24.9,28.4,35.7ZM8,35.7c.1,6.1,2.1,9.1,6.1,9.1s6-3.2,6.1-9.4c0-6.1-2-9.1-6-9.1C10,26.4,8,29.5,8,35.7Z" transform="translate(0 0.002)" fill="url(#linear-gradient)"/>
</svg>
